<svg width="720" height="240" viewBox="0 0 720 240" fill="none" xmlns="http://www.w3.org/2000/svg">
  <rect width="720" height="240" fill="#FAFAF5"/>
  <g transform="translate(28,20)">
    <g transform="translate(0,0)">
      <path d="M76 18C98 17 158 17 184 18C196 25 202 31 208 37C208 58 208 93 204 115C199 145 180 165 126 184C72 165 53 145 48 115C44 93 44 58 44 37C50 31 56 25 76 18Z"
            stroke="#2D6B4F" stroke-width="5.2" fill="#E8F0EB"/>
      <circle cx="128" cy="95" r="43" stroke="#2D6B4F" stroke-width="5"/>
      <path d="M110 52L89 15" stroke="#2D6B4F" stroke-width="5" stroke-linecap="round"/>
      <path d="M146 52L167 15" stroke="#2D6B4F" stroke-width="5" stroke-linecap="round"/>
      <circle cx="88" cy="14" r="6" fill="#2D6B4F"/>
      <circle cx="168" cy="14" r="6" fill="#2D6B4F"/>
      <path d="M92 83C108 66 124 63 164 81" stroke="#2D6B4F" stroke-width="4.2" stroke-linecap="round"/>
      <path d="M86 100C105 79 124 77 170 101" stroke="#2D6B4F" stroke-width="4.2" stroke-linecap="round"/>
      <path d="M92 117C109 101 131 99 170 120" stroke="#2D6B4F" stroke-width="4.2" stroke-linecap="round"/>
      <path d="M107 132C121 120 138 120 162 133" stroke="#2D6B4F" stroke-width="4.2" stroke-linecap="round"/>
      <path d="M160 68C175 78 183 87 185 105" stroke="#2D6B4F" stroke-width="4" stroke-linecap="round"/>
      <path d="M166 54C176 47 184 37 189 24" stroke="#2D6B4F" stroke-width="4" stroke-linecap="round"/>
      <path d="M177 69C190 67 198 60 203 50" stroke="#2D6B4F" stroke-width="4" stroke-linecap="round"/>
      <path d="M177 88C192 91 201 89 209 80" stroke="#2D6B4F" stroke-width="4" stroke-linecap="round"/>
      <path d="M171 109C184 115 191 121 194 131" stroke="#2D6B4F" stroke-width="4" stroke-linecap="round"/>
      <path d="M82 125H174" stroke="#2D6B4F" stroke-width="4.2" stroke-linecap="round" opacity="0.85"/>
      <path d="M99 138C113 135 128 135 143 138" stroke="#2D6B4F" stroke-width="3.5" stroke-linecap="round" opacity="0.6"/>
    </g>
    <g transform="translate(248,92)">
      <text x="0" y="0"
            fill="#244F3B"
            font-family="Georgia, 'Times New Roman', serif"
            font-size="88"
            letter-spacing="-2.8">Lykkja</text>
      <text x="4" y="34"
            fill="#6F6A62"
            font-family="Arial, Helvetica, sans-serif"
            font-size="18"
            letter-spacing="2.2">TILPASS STRIKKEOPPSKRIFTER</text>
    </g>
  </g>
</svg>
